<?xml version="1.0" standalone="no"?>
<!DOCTYPE svg PUBLIC "-//W3C//DTD SVG 20010904//EN"
 "http://www.w3.org/TR/2001/REC-SVG-20010904/DTD/svg10.dtd">
<svg version="1.0" xmlns="http://www.w3.org/2000/svg"
 width="214.000000pt" height="58.000000pt" viewBox="0 0 214.000000 58.000000"
 preserveAspectRatio="xMidYMid meet">
<metadata>
Created by potrace 1.16, written by Peter Selinger 2001-2019
</metadata>
<g transform="translate(0.000000,58.000000) scale(0.100000,-0.100000)"
fill="#000000" stroke="none">
<path d="M1063 550 c-147 -74 -204 -238 -134 -385 49 -103 129 -157 243 -163
95 -6 159 18 223 82 60 59 85 121 85 206 0 164 -113 280 -280 288 -68 3 -81 0
-137 -28z m214 -138 c43 -30 66 -85 60 -138 -16 -144 -202 -183 -274 -58 -60
105 19 232 138 221 26 -2 60 -13 76 -25z"/>
<path d="M1745 556 c-53 -24 -112 -83 -141 -138 -26 -50 -30 -164 -9 -228 66
-199 328 -256 467 -102 64 71 73 96 73 202 0 106 -9 131 -73 202 -52 58 -121
88 -202 88 -47 0 -79 -7 -115 -24z m211 -157 c66 -64 66 -154 -1 -219 -33 -32
-41 -35 -95 -35 -54 0 -62 3 -95 35 -66 64 -67 155 -3 217 42 39 53 43 111 39
39 -3 55 -10 83 -37z"/>
<path d="M0 553 c0 -17 164 -529 173 -541 7 -9 32 -12 81 -10 l71 3 23 45 c12
25 34 74 50 109 l27 64 45 -107 c49 -119 49 -119 145 -114 l60 3 42 125 c23
69 42 133 42 143 1 16 -7 18 -71 15 l-71 -3 -12 -35 -13 -35 -10 25 c-36 91
-73 159 -93 174 -13 9 -43 16 -68 16 -37 0 -49 -5 -75 -34 -17 -18 -44 -65
-60 -105 -17 -39 -33 -68 -36 -64 -4 5 -29 81 -56 171 l-49 162 -72 0 c-40 0
-73 -3 -73 -7z"/>
<path d="M672 456 c-18 -57 -32 -107 -32 -110 0 -3 35 -6 78 -6 l77 0 29 93
c16 50 31 100 34 110 4 15 -4 17 -75 17 l-80 0 -31 -104z"/>
</g>
</svg>
